<svg xmlns="http://www.w3.org/2000/svg" xmlns:xlink="http://www.w3.org/1999/xlink" width="330" zoomAndPan="magnify" viewBox="0 0 247.5 52.499999" height="70" preserveAspectRatio="xMidYMid meet" version="1.0"><defs><g/><clipPath id="d0aed4d482"><path d="M 1 0 L 38.808594 0 L 38.808594 37.144531 L 1 37.144531 Z M 1 0 " clip-rule="nonzero"/></clipPath><clipPath id="fb727fd7b5"><path d="M 41 4 L 246.085938 4 L 246.085938 52.003906 L 41 52.003906 Z M 41 4 " clip-rule="nonzero"/></clipPath><clipPath id="43bcda4b9f"><path d="M 0.335938 0.0429688 L 205.085938 0.0429688 L 205.085938 48.003906 L 0.335938 48.003906 Z M 0.335938 0.0429688 " clip-rule="nonzero"/></clipPath><clipPath id="f1eef17e35"><path d="M 179 18 L 205.085938 18 L 205.085938 44 L 179 44 Z M 179 18 " clip-rule="nonzero"/></clipPath><clipPath id="98f46d81a9"><rect x="0" width="206" y="0" height="49"/></clipPath><clipPath id="c4f4adc968"><rect x="0" width="206" y="0" height="49"/></clipPath></defs><g clip-path="url(#d0aed4d482)"><path fill="#4338ca" d="M 38.132812 12.113281 C 38.109375 12.070312 38.074219 12.035156 38.046875 11.992188 C 37.488281 11.277344 36.539062 10.886719 35.644531 10.988281 C 34.660156 11.097656 33.925781 11.585938 33.535156 11.867188 C 33.535156 11.867188 31.125 13.578125 27.179688 15.222656 C 26.507812 15.503906 26.394531 15.390625 26.371094 15.359375 C 26.34375 15.324219 26.335938 15.273438 26.363281 15.207031 C 26.847656 13.527344 27.375 11.847656 27.691406 10.136719 C 28.074219 8.238281 28.3125 6.3125 28.40625 4.378906 C 28.457031 3.398438 28.449219 2.359375 27.929688 1.535156 C 27.121094 0.238281 25.050781 0 23.960938 1.074219 C 23.277344 1.746094 23.03125 2.734375 22.828125 3.671875 C 22.5625 4.863281 22.316406 6.066406 22.09375 7.265625 C 21.984375 7.871094 21.898438 8.484375 21.820312 9.097656 C 21.71875 9.90625 21.675781 10.433594 21.472656 10.476562 C 21.394531 10.496094 21.257812 10.46875 21.039062 10.085938 C 20.808594 9.695312 20.585938 9.300781 20.347656 8.917969 C 19.914062 8.203125 19.460938 7.503906 18.984375 6.824219 C 18.039062 5.453125 17 4.140625 15.875 2.894531 C 15.210938 2.15625 14.476562 1.421875 13.550781 1.082031 C 12.800781 0.808594 11.898438 0.859375 11.25 1.347656 C 10.558594 1.847656 9.964844 2.28125 10.03125 3.246094 C 10.074219 3.839844 10.347656 4.402344 10.621094 4.941406 C 11.121094 5.902344 11.675781 6.847656 12.273438 7.761719 C 12.28125 7.777344 12.65625 8.324219 13.386719 9.402344 C 13.925781 10.1875 14.367188 10.84375 14.292969 10.902344 C 14.257812 10.929688 14.171875 10.800781 13.90625 10.671875 C 13.652344 10.554688 13.40625 10.433594 13.148438 10.332031 C 12.636719 10.128906 12.117188 9.941406 11.589844 9.769531 C 10.542969 9.421875 9.46875 9.140625 8.386719 8.917969 C 7.722656 8.78125 7.058594 8.671875 6.394531 8.585938 C 5.59375 8.484375 4.75 8.417969 4 8.714844 C 3.148438 9.054688 2.5 9.871094 2.367188 10.785156 C 2.238281 11.695312 2.621094 12.65625 3.34375 13.230469 C 3.914062 13.671875 4.640625 13.867188 5.339844 14.054688 C 7.75 14.71875 10.109375 15.546875 12.410156 16.542969 C 12.203125 16.457031 11.34375 16.898438 11.121094 16.976562 C 10.652344 17.148438 10.195312 17.328125 9.734375 17.511719 C 8.8125 17.886719 7.910156 18.304688 7.035156 18.757812 C 5.390625 19.601562 3.421875 20.570312 2.195312 21.996094 C 1.300781 23.042969 1.121094 24.574219 2.042969 25.675781 C 2.636719 26.382812 3.609375 26.757812 4.519531 26.621094 C 5.320312 26.5 6.027344 26.03125 6.71875 25.605469 C 8.472656 24.515625 10.339844 23.605469 12.28125 22.890625 C 12.929688 22.648438 13.53125 22.164062 13.761719 22.378906 C 14 22.597656 13.617188 23.367188 13.480469 23.65625 C 11.761719 27.234375 11.488281 31.902344 11.445312 32.351562 C 11.308594 33.691406 11.292969 35.179688 12.160156 36.203125 C 13.269531 37.507812 15.671875 37.292969 16.53125 35.8125 C 16.898438 35.179688 16.992188 34.429688 17.09375 33.707031 C 17.417969 31.425781 17.714844 30.28125 17.714844 30.28125 C 18.191406 27.421875 18.3125 26.917969 18.542969 26.902344 C 18.773438 26.875 18.882812 27.371094 19.691406 28.851562 C 19.894531 29.234375 20.332031 30.019531 20.945312 30.964844 C 21.820312 32.328125 22.792969 33.613281 23.867188 34.832031 C 24.574219 35.632812 25.390625 36.441406 26.445312 36.636719 C 27.988281 36.910156 29.589844 35.460938 29.46875 33.902344 C 29.417969 33.289062 29.265625 32.847656 28.816406 32.0625 C 27.894531 30.46875 25.433594 27.214844 25.347656 26.824219 C 25.347656 26.824219 25.347656 26.816406 25.347656 26.808594 C 25.414062 26.652344 27.203125 27.453125 29.292969 28.101562 C 29.726562 28.238281 31.363281 28.664062 33.492188 29.003906 C 34.292969 29.132812 35.144531 29.226562 35.910156 28.945312 C 37.417969 28.382812 38.03125 26.21875 37.027344 24.957031 C 36.507812 24.300781 35.875 23.953125 34.777344 23.585938 C 30.203125 22.078125 27.902344 21.875 27.859375 21.3125 C 27.828125 20.886719 29.136719 20.714844 32.085938 19.34375 C 32.257812 19.269531 34.078125 18.332031 36.277344 16.882812 C 37.179688 16.285156 38.117188 15.589844 38.484375 14.566406 C 38.753906 13.765625 38.628906 12.820312 38.132812 12.113281 Z M 38.132812 12.113281 " fill-opacity="1" fill-rule="nonzero"/><path fill="#4338ca" d="M 14.164062 37.277344 C 13.304688 37.277344 12.511719 36.933594 12 36.339844 C 11.078125 35.25 11.097656 33.699219 11.234375 32.328125 C 11.234375 32.300781 11.242188 32.257812 11.242188 32.191406 C 11.515625 28.800781 12.238281 25.734375 13.285156 23.554688 L 13.3125 23.503906 C 13.652344 22.777344 13.644531 22.582031 13.617188 22.523438 C 13.523438 22.503906 13.226562 22.660156 13.023438 22.769531 C 12.816406 22.871094 12.585938 22.992188 12.355469 23.074219 C 10.433594 23.78125 8.574219 24.695312 6.835938 25.777344 L 6.683594 25.871094 C 6.027344 26.277344 5.347656 26.703125 4.554688 26.816406 C 3.574219 26.960938 2.527344 26.558594 1.878906 25.792969 C 0.941406 24.667969 1.003906 23.042969 2.035156 21.839844 C 3.234375 20.453125 5.082031 19.5 6.71875 18.664062 L 6.929688 18.554688 C 7.824219 18.09375 8.738281 17.675781 9.648438 17.300781 C 10.144531 17.105469 10.59375 16.925781 11.046875 16.765625 C 11.097656 16.746094 11.199219 16.703125 11.308594 16.652344 C 11.464844 16.585938 11.609375 16.527344 11.726562 16.472656 C 9.648438 15.605469 7.484375 14.855469 5.277344 14.25 C 4.597656 14.0625 3.820312 13.859375 3.207031 13.390625 C 2.425781 12.777344 2.007812 11.738281 2.152344 10.75 C 2.296875 9.761719 2.996094 8.882812 3.914062 8.511719 C 4.726562 8.1875 5.628906 8.269531 6.410156 8.363281 C 7.074219 8.449219 7.757812 8.5625 8.421875 8.695312 C 9.546875 8.925781 10.628906 9.21875 11.648438 9.558594 C 12.179688 9.726562 12.707031 9.914062 13.21875 10.128906 C 13.40625 10.203125 13.59375 10.289062 13.78125 10.375 C 13.601562 10.09375 13.371094 9.761719 13.199219 9.515625 C 12.808594 8.9375 12.519531 8.511719 12.332031 8.238281 C 12.144531 7.957031 12.09375 7.886719 12.078125 7.863281 C 11.480469 6.949219 10.917969 5.996094 10.414062 5.027344 C 10.117188 4.4375 9.84375 3.867188 9.800781 3.246094 C 9.726562 2.164062 10.398438 1.679688 11.105469 1.160156 C 11.769531 0.664062 12.722656 0.546875 13.601562 0.867188 C 14.605469 1.234375 15.371094 2.027344 16.011719 2.742188 C 17.136719 3.996094 18.191406 5.324219 19.136719 6.695312 C 19.597656 7.351562 20.050781 8.042969 20.507812 8.800781 C 20.679688 9.070312 20.851562 9.363281 21.011719 9.644531 C 21.070312 9.753906 21.140625 9.863281 21.199219 9.976562 C 21.292969 10.136719 21.359375 10.214844 21.394531 10.238281 C 21.464844 10.09375 21.515625 9.675781 21.558594 9.300781 L 21.582031 9.0625 C 21.675781 8.3125 21.761719 7.742188 21.855469 7.222656 C 22.066406 6.082031 22.316406 4.871094 22.585938 3.621094 C 22.808594 2.597656 23.074219 1.617188 23.78125 0.921875 C 24.34375 0.367188 25.1875 0.101562 26.054688 0.203125 C 26.921875 0.308594 27.664062 0.75 28.082031 1.421875 C 28.644531 2.324219 28.644531 3.425781 28.59375 4.394531 C 28.5 6.335938 28.261719 8.289062 27.878906 10.1875 C 27.613281 11.636719 27.1875 13.074219 26.777344 14.464844 C 26.710938 14.710938 26.632812 14.949219 26.566406 15.195312 C 26.652344 15.179688 26.8125 15.144531 27.078125 15.035156 C 30.953125 13.417969 33.363281 11.722656 33.390625 11.703125 C 33.859375 11.363281 34.605469 10.902344 35.605469 10.792969 C 36.574219 10.683594 37.589844 11.109375 38.195312 11.875 L 38.210938 11.898438 C 38.21875 11.917969 38.226562 11.925781 38.234375 11.941406 C 38.253906 11.960938 38.269531 11.984375 38.285156 12.019531 C 38.816406 12.777344 38.960938 13.78125 38.660156 14.660156 C 38.269531 15.765625 37.273438 16.492188 36.371094 17.085938 C 34.148438 18.554688 32.332031 19.480469 32.144531 19.566406 C 30.875 20.15625 29.921875 20.519531 29.222656 20.785156 C 28.652344 21.007812 28.117188 21.210938 28.046875 21.320312 C 28.117188 21.507812 29.179688 21.789062 30.21875 22.0625 C 31.34375 22.359375 32.878906 22.769531 34.820312 23.410156 C 36.03125 23.808594 36.644531 24.191406 37.171875 24.847656 C 37.683594 25.488281 37.84375 26.398438 37.597656 27.285156 C 37.351562 28.179688 36.738281 28.878906 35.960938 29.167969 C 35.125 29.472656 34.222656 29.363281 33.433594 29.234375 C 31.21875 28.878906 29.597656 28.449219 29.199219 28.324219 C 28.261719 28.035156 27.390625 27.710938 26.683594 27.453125 C 26.320312 27.316406 25.953125 27.183594 25.6875 27.097656 C 25.945312 27.503906 26.4375 28.222656 26.898438 28.867188 C 27.648438 29.941406 28.5 31.160156 28.96875 31.96875 C 29.429688 32.769531 29.597656 33.238281 29.648438 33.894531 C 29.710938 34.695312 29.351562 35.519531 28.695312 36.125 C 28.03125 36.722656 27.171875 37.003906 26.378906 36.859375 C 25.28125 36.652344 24.429688 35.835938 23.679688 34.984375 C 22.605469 33.765625 21.617188 32.453125 20.738281 31.089844 C 20.117188 30.136719 19.683594 29.34375 19.480469 28.960938 C 19.1875 28.433594 18.984375 28.023438 18.839844 27.726562 C 18.710938 27.472656 18.601562 27.25 18.53125 27.15625 C 18.386719 27.4375 18.175781 28.664062 17.894531 30.324219 L 17.894531 30.34375 C 17.894531 30.351562 17.597656 31.5 17.28125 33.742188 L 17.273438 33.824219 C 17.171875 34.542969 17.066406 35.28125 16.691406 35.921875 C 16.257812 36.679688 15.40625 37.183594 14.4375 37.265625 C 14.359375 37.277344 14.257812 37.277344 14.164062 37.277344 Z M 13.617188 22.113281 C 13.730469 22.113281 13.824219 22.148438 13.90625 22.222656 C 14.222656 22.515625 13.96875 23.136719 13.695312 23.699219 L 13.667969 23.75 C 12.636719 25.886719 11.929688 28.902344 11.667969 32.234375 C 11.660156 32.292969 11.660156 32.34375 11.660156 32.371094 C 11.53125 33.65625 11.503906 35.09375 12.324219 36.058594 C 12.800781 36.621094 13.585938 36.910156 14.417969 36.832031 C 15.253906 36.757812 15.976562 36.332031 16.34375 35.699219 C 16.675781 35.128906 16.769531 34.429688 16.863281 33.757812 L 16.871094 33.671875 C 17.179688 31.484375 17.46875 30.359375 17.492188 30.230469 C 17.722656 28.867188 17.878906 27.972656 18.003906 27.472656 C 18.105469 27.054688 18.21875 26.703125 18.515625 26.6875 C 18.804688 26.652344 18.933594 26.910156 19.238281 27.53125 C 19.386719 27.828125 19.589844 28.230469 19.871094 28.75 C 20.074219 29.132812 20.5 29.90625 21.113281 30.84375 C 21.984375 32.191406 22.960938 33.484375 24.019531 34.6875 C 24.71875 35.480469 25.507812 36.246094 26.480469 36.425781 C 27.136719 36.542969 27.871094 36.304688 28.441406 35.792969 C 29.003906 35.28125 29.308594 34.585938 29.257812 33.917969 C 29.207031 33.332031 29.0625 32.921875 28.628906 32.171875 C 28.167969 31.382812 27.324219 30.171875 26.582031 29.105469 C 25.59375 27.691406 25.1875 27.089844 25.144531 26.875 L 25.136719 26.851562 L 25.136719 26.765625 L 25.152344 26.722656 C 25.253906 26.492188 25.542969 26.585938 25.832031 26.671875 C 26.089844 26.757812 26.445312 26.882812 26.863281 27.035156 C 27.5625 27.292969 28.421875 27.609375 29.351562 27.898438 C 29.835938 28.050781 31.496094 28.46875 33.523438 28.792969 C 34.257812 28.910156 35.101562 29.011719 35.832031 28.742188 C 36.480469 28.503906 36.992188 27.898438 37.207031 27.140625 C 37.410156 26.390625 37.28125 25.625 36.855469 25.085938 C 36.386719 24.5 35.824219 24.15625 34.710938 23.78125 C 32.777344 23.144531 31.25 22.742188 30.136719 22.445312 C 28.40625 21.984375 27.683594 21.796875 27.648438 21.320312 C 27.613281 20.921875 28.046875 20.75 29.097656 20.359375 C 29.785156 20.09375 30.738281 19.738281 31.992188 19.148438 C 32.164062 19.074219 33.992188 18.125 36.15625 16.703125 C 37 16.152344 37.929688 15.46875 38.277344 14.488281 C 38.535156 13.75 38.40625 12.878906 37.953125 12.230469 L 37.945312 12.222656 C 37.9375 12.207031 37.929688 12.199219 37.921875 12.179688 C 37.902344 12.164062 37.886719 12.136719 37.871094 12.113281 C 37.351562 11.464844 36.488281 11.097656 35.664062 11.191406 C 34.769531 11.296875 34.085938 11.722656 33.652344 12.027344 C 33.628906 12.042969 31.175781 13.773438 27.257812 15.410156 C 26.660156 15.65625 26.34375 15.671875 26.191406 15.476562 C 26.121094 15.382812 26.105469 15.257812 26.148438 15.128906 C 26.226562 14.863281 26.300781 14.59375 26.378906 14.328125 C 26.789062 12.949219 27.203125 11.515625 27.46875 10.085938 C 27.851562 8.203125 28.089844 6.277344 28.183594 4.351562 C 28.234375 3.449219 28.234375 2.425781 27.742188 1.636719 C 27.390625 1.082031 26.753906 0.699219 26.019531 0.613281 C 25.289062 0.527344 24.5625 0.75 24.09375 1.210938 C 23.472656 1.824219 23.226562 2.742188 23.023438 3.707031 C 22.75 4.949219 22.503906 6.160156 22.289062 7.292969 C 22.195312 7.8125 22.109375 8.363281 22.015625 9.113281 L 21.992188 9.351562 C 21.890625 10.164062 21.839844 10.605469 21.507812 10.683594 C 21.207031 10.75 20.988281 10.433594 20.839844 10.1875 C 20.78125 10.078125 20.714844 9.964844 20.652344 9.855469 C 20.492188 9.582031 20.332031 9.292969 20.160156 9.019531 C 19.699219 8.269531 19.257812 7.589844 18.804688 6.933594 C 17.867188 5.578125 16.828125 4.257812 15.714844 3.023438 C 15.109375 2.351562 14.382812 1.601562 13.472656 1.269531 C 12.730469 0.996094 11.921875 1.089844 11.378906 1.507812 C 10.714844 1.992188 10.183594 2.375 10.246094 3.21875 C 10.289062 3.757812 10.527344 4.269531 10.808594 4.828125 C 11.308594 5.785156 11.855469 6.730469 12.449219 7.632812 L 12.460938 7.640625 C 12.484375 7.675781 12.570312 7.8125 12.699219 7.988281 C 12.886719 8.261719 13.175781 8.6875 13.566406 9.269531 C 13.832031 9.652344 14.078125 10.015625 14.257812 10.296875 C 14.46875 10.628906 14.632812 10.902344 14.425781 11.058594 C 14.28125 11.167969 14.136719 11.058594 14.078125 11.015625 C 14.019531 10.972656 13.949219 10.910156 13.824219 10.851562 L 13.703125 10.792969 C 13.492188 10.691406 13.285156 10.597656 13.082031 10.511719 C 12.578125 10.308594 12.058594 10.121094 11.539062 9.957031 C 10.535156 9.625 9.460938 9.335938 8.363281 9.113281 C 7.707031 8.976562 7.042969 8.867188 6.386719 8.78125 C 5.652344 8.6875 4.808594 8.613281 4.09375 8.894531 C 3.3125 9.207031 2.714844 9.957031 2.585938 10.792969 C 2.46875 11.636719 2.824219 12.511719 3.488281 13.042969 C 4.027344 13.457031 4.726562 13.644531 5.40625 13.824219 C 7.84375 14.5 10.226562 15.332031 12.503906 16.320312 C 12.570312 16.378906 12.605469 16.472656 12.578125 16.558594 C 12.542969 16.660156 12.441406 16.722656 12.332031 16.714844 L 12.347656 16.722656 C 12.222656 16.703125 11.691406 16.941406 11.488281 17.027344 C 11.359375 17.085938 11.257812 17.128906 11.191406 17.15625 C 10.746094 17.316406 10.296875 17.488281 9.808594 17.691406 C 8.914062 18.058594 8.011719 18.476562 7.128906 18.925781 L 6.90625 19.039062 C 5.304688 19.855469 3.5 20.785156 2.347656 22.113281 C 1.453125 23.160156 1.394531 24.558594 2.195312 25.519531 C 2.75 26.175781 3.644531 26.515625 4.476562 26.390625 C 5.175781 26.289062 5.824219 25.886719 6.445312 25.496094 L 6.597656 25.402344 C 8.363281 24.300781 10.246094 23.382812 12.195312 22.667969 C 12.410156 22.589844 12.613281 22.480469 12.816406 22.378906 C 13.125 22.25 13.398438 22.113281 13.617188 22.113281 Z M 13.617188 22.113281 " fill-opacity="1" fill-rule="nonzero"/></g><g clip-path="url(#fb727fd7b5)"><g transform="matrix(1, 0, 0, 1, 41, 4)"><g clip-path="url(#c4f4adc968)"><g clip-path="url(#43bcda4b9f)"><g><g clip-path="url(#98f46d81a9)"><g fill="#000000" fill-opacity="1"><g transform="translate(0.551308, 43.441629)"><g><path d="M 9.8125 0 L 2.421875 0 L 2.421875 -24.953125 L 9.8125 -24.953125 L 9.8125 -22.265625 C 10.664062 -23.535156 11.613281 -24.390625 12.65625 -24.828125 C 13.695312 -25.265625 14.878906 -25.484375 16.203125 -25.484375 L 17.296875 -25.484375 L 17.296875 -18.4375 L 15.890625 -18.4375 C 14.859375 -18.4375 14.003906 -18.316406 13.328125 -18.078125 C 12.660156 -17.847656 12.109375 -17.53125 11.671875 -17.125 C 11.023438 -16.507812 10.550781 -15.679688 10.25 -14.640625 C 9.957031 -13.597656 9.8125 -12.222656 9.8125 -10.515625 Z M 9.8125 0 "/></g></g></g><g fill="#000000" fill-opacity="1"><g transform="translate(17.495654, 43.441629)"><g><path d="M 14.4375 0.53125 C 11.789062 0.53125 9.492188 -0.0234375 7.546875 -1.140625 C 5.597656 -2.253906 4.085938 -3.769531 3.015625 -5.6875 C 1.941406 -7.613281 1.40625 -9.8125 1.40625 -12.28125 C 1.40625 -13.863281 1.644531 -15.429688 2.125 -16.984375 C 2.613281 -18.546875 3.378906 -19.972656 4.421875 -21.265625 C 5.460938 -22.554688 6.789062 -23.582031 8.40625 -24.34375 C 10.019531 -25.101562 11.957031 -25.484375 14.21875 -25.484375 C 15.863281 -25.484375 17.453125 -25.238281 18.984375 -24.75 C 20.523438 -24.269531 21.90625 -23.5 23.125 -22.4375 C 24.34375 -21.382812 25.3125 -20.015625 26.03125 -18.328125 C 26.75 -16.640625 27.109375 -14.59375 27.109375 -12.1875 L 27.109375 -10.921875 L 9.15625 -10.921875 C 9.363281 -9.566406 9.789062 -8.492188 10.4375 -7.703125 C 10.957031 -7.054688 11.59375 -6.578125 12.34375 -6.265625 C 13.09375 -5.960938 13.921875 -5.8125 14.828125 -5.8125 C 15.941406 -5.8125 16.890625 -6.085938 17.671875 -6.640625 C 18.453125 -7.203125 18.988281 -7.863281 19.28125 -8.625 L 26.71875 -8.625 C 26.25 -6.976562 25.5 -5.457031 24.46875 -4.0625 C 23.445312 -2.675781 22.101562 -1.5625 20.4375 -0.71875 C 18.78125 0.113281 16.78125 0.53125 14.4375 0.53125 Z M 9.375 -16.15625 L 19.625 -16.15625 C 19.570312 -16.445312 19.460938 -16.796875 19.296875 -17.203125 C 19.140625 -17.617188 18.851562 -18.019531 18.4375 -18.40625 C 17.914062 -18.925781 17.316406 -19.296875 16.640625 -19.515625 C 15.960938 -19.734375 15.242188 -19.84375 14.484375 -19.84375 C 13.742188 -19.84375 13.03125 -19.734375 12.34375 -19.515625 C 11.65625 -19.296875 11.046875 -18.925781 10.515625 -18.40625 C 10.109375 -17.988281 9.832031 -17.582031 9.6875 -17.1875 C 9.539062 -16.789062 9.4375 -16.445312 9.375 -16.15625 Z M 9.375 -16.15625 "/></g></g></g><g fill="#000000" fill-opacity="1"><g transform="translate(44.914686, 43.441629)"><g><path d="M 9.640625 0.53125 C 8.140625 0.53125 6.773438 0.253906 5.546875 -0.296875 C 4.316406 -0.859375 3.328125 -1.695312 2.578125 -2.8125 C 1.828125 -3.925781 1.453125 -5.320312 1.453125 -7 C 1.453125 -8.5 1.742188 -9.726562 2.328125 -10.6875 C 2.921875 -11.65625 3.671875 -12.4375 4.578125 -13.03125 C 5.453125 -13.613281 6.414062 -14.046875 7.46875 -14.328125 C 8.53125 -14.609375 9.53125 -14.835938 10.46875 -15.015625 L 16.953125 -16.15625 C 16.859375 -17.414062 16.519531 -18.382812 15.9375 -19.0625 C 15.375 -19.644531 14.535156 -19.9375 13.421875 -19.9375 C 12.566406 -19.9375 11.78125 -19.648438 11.0625 -19.078125 C 10.34375 -18.503906 9.898438 -17.691406 9.734375 -16.640625 L 2.375 -16.640625 C 2.695312 -18.722656 3.414062 -20.414062 4.53125 -21.71875 C 5.644531 -23.03125 6.992188 -23.984375 8.578125 -24.578125 C 10.160156 -25.179688 11.789062 -25.484375 13.46875 -25.484375 C 14.9375 -25.484375 16.34375 -25.285156 17.6875 -24.890625 C 19.039062 -24.492188 20.21875 -23.867188 21.21875 -23.015625 C 22.238281 -22.140625 22.960938 -21.128906 23.390625 -19.984375 C 23.816406 -18.835938 24.070312 -17.582031 24.15625 -16.21875 C 24.25 -14.851562 24.296875 -13.394531 24.296875 -11.84375 L 24.296875 0 L 16.90625 0 L 16.90625 -3.03125 C 16.488281 -2.0625 15.898438 -1.316406 15.140625 -0.796875 C 14.410156 -0.296875 13.566406 0.046875 12.609375 0.234375 C 11.660156 0.429688 10.671875 0.53125 9.640625 0.53125 Z M 11.796875 -5.0625 C 12.671875 -5.0625 13.566406 -5.265625 14.484375 -5.671875 C 15.503906 -6.140625 16.179688 -6.789062 16.515625 -7.625 C 16.859375 -8.46875 17.046875 -9.566406 17.078125 -10.921875 L 12.546875 -10.03125 C 11.722656 -9.882812 11.085938 -9.722656 10.640625 -9.546875 C 10.203125 -9.367188 9.820312 -9.132812 9.5 -8.84375 C 9.300781 -8.632812 9.140625 -8.40625 9.015625 -8.15625 C 8.898438 -7.914062 8.84375 -7.617188 8.84375 -7.265625 C 8.84375 -6.472656 9.132812 -5.90625 9.71875 -5.5625 C 10.3125 -5.226562 11.003906 -5.0625 11.796875 -5.0625 Z M 11.796875 -5.0625 "/></g></g></g><g fill="#000000" fill-opacity="1"><g transform="translate(70.26519, 43.441629)"><g><path d="M 14.390625 0.53125 C 11.804688 0.53125 9.539062 -0.0078125 7.59375 -1.09375 C 5.644531 -2.1875 4.125 -3.722656 3.03125 -5.703125 C 1.945312 -7.679688 1.40625 -9.988281 1.40625 -12.625 C 1.40625 -15.1875 1.941406 -17.425781 3.015625 -19.34375 C 4.085938 -21.269531 5.597656 -22.773438 7.546875 -23.859375 C 9.492188 -24.941406 11.773438 -25.484375 14.390625 -25.484375 C 17.535156 -25.484375 20.195312 -24.679688 22.375 -23.078125 C 24.5625 -21.484375 25.976562 -19.335938 26.625 -16.640625 L 18.53125 -16.640625 C 17.882812 -18.628906 16.503906 -19.625 14.390625 -19.625 C 12.742188 -19.625 11.4375 -19 10.46875 -17.75 C 9.5 -16.507812 9.015625 -14.800781 9.015625 -12.625 C 9.015625 -10.375 9.5 -8.601562 10.46875 -7.3125 C 11.4375 -6.019531 12.742188 -5.375 14.390625 -5.375 C 15.648438 -5.375 16.609375 -5.660156 17.265625 -6.234375 C 17.929688 -6.804688 18.382812 -7.601562 18.625 -8.625 L 26.671875 -8.625 C 26.054688 -5.75 24.640625 -3.503906 22.421875 -1.890625 C 20.210938 -0.273438 17.535156 0.53125 14.390625 0.53125 Z M 14.390625 0.53125 "/></g></g></g><g fill="#000000" fill-opacity="1"><g transform="translate(97.024056, 43.441629)"><g><path d="M 9.8125 0 L 2.421875 0 L 2.421875 -33.578125 L 9.8125 -33.578125 L 9.8125 -22.265625 C 10.664062 -23.535156 11.613281 -24.390625 12.65625 -24.828125 C 13.695312 -25.265625 14.878906 -25.484375 16.203125 -25.484375 C 17.835938 -25.484375 19.191406 -25.285156 20.265625 -24.890625 C 21.335938 -24.492188 22.1875 -23.960938 22.8125 -23.296875 C 23.445312 -22.640625 23.925781 -21.929688 24.25 -21.171875 C 24.75 -20.085938 25.035156 -19 25.109375 -17.90625 C 25.179688 -16.820312 25.21875 -15.503906 25.21875 -13.953125 L 25.21875 0 L 17.828125 0 L 17.828125 -14.046875 C 17.828125 -15.273438 17.742188 -16.25 17.578125 -16.96875 C 17.421875 -17.6875 17.148438 -18.238281 16.765625 -18.625 C 16.179688 -19.238281 15.273438 -19.546875 14.046875 -19.546875 C 13.273438 -19.546875 12.609375 -19.445312 12.046875 -19.25 C 11.492188 -19.0625 11.054688 -18.734375 10.734375 -18.265625 C 10.441406 -17.859375 10.210938 -17.320312 10.046875 -16.65625 C 9.890625 -16 9.8125 -15.128906 9.8125 -14.046875 Z M 9.8125 0 "/></g></g></g><g fill="#000000" fill-opacity="1"><g transform="translate(123.386824, 43.441629)"><g><path d="M 16.203125 0.53125 C 14.878906 0.53125 13.695312 0.3125 12.65625 -0.125 C 11.613281 -0.570312 10.664062 -1.425781 9.8125 -2.6875 L 9.8125 0 L 2.421875 0 L 2.421875 -33.578125 L 9.8125 -33.578125 L 9.8125 -22.265625 C 10.664062 -23.535156 11.613281 -24.390625 12.65625 -24.828125 C 13.695312 -25.265625 14.878906 -25.484375 16.203125 -25.484375 C 18.335938 -25.484375 20.21875 -24.929688 21.84375 -23.828125 C 23.476562 -22.734375 24.753906 -21.207031 25.671875 -19.25 C 26.597656 -17.300781 27.0625 -15.050781 27.0625 -12.5 C 27.0625 -9.945312 26.597656 -7.691406 25.671875 -5.734375 C 24.753906 -3.785156 23.476562 -2.253906 21.84375 -1.140625 C 20.21875 -0.0234375 18.335938 0.53125 16.203125 0.53125 Z M 14.125 -5.765625 C 15.769531 -5.765625 17.09375 -6.394531 18.09375 -7.65625 C 19.09375 -8.914062 19.59375 -10.53125 19.59375 -12.5 C 19.59375 -14.46875 19.09375 -16.070312 18.09375 -17.3125 C 17.09375 -18.5625 15.769531 -19.1875 14.125 -19.1875 C 12.507812 -19.1875 11.195312 -18.570312 10.1875 -17.34375 C 9.175781 -16.113281 8.671875 -14.5 8.671875 -12.5 C 8.671875 -10.476562 9.175781 -8.847656 10.1875 -7.609375 C 11.195312 -6.378906 12.507812 -5.765625 14.125 -5.765625 Z M 14.125 -5.765625 "/></g></g></g><g fill="#000000" fill-opacity="1"><g transform="translate(150.849866, 43.441629)"><g><path d="M 14.53125 0.53125 C 11.945312 0.53125 9.660156 -0.0078125 7.671875 -1.09375 C 5.691406 -2.1875 4.148438 -3.722656 3.046875 -5.703125 C 1.953125 -7.679688 1.40625 -9.988281 1.40625 -12.625 C 1.40625 -15.1875 1.953125 -17.425781 3.046875 -19.34375 C 4.148438 -21.269531 5.6875 -22.773438 7.65625 -23.859375 C 9.625 -24.941406 11.914062 -25.484375 14.53125 -25.484375 C 17.132812 -25.484375 19.421875 -24.941406 21.390625 -23.859375 C 23.359375 -22.773438 24.890625 -21.269531 25.984375 -19.34375 C 27.085938 -17.425781 27.640625 -15.1875 27.640625 -12.625 C 27.640625 -9.988281 27.097656 -7.6875 26.015625 -5.71875 C 24.929688 -3.75 23.40625 -2.210938 21.4375 -1.109375 C 19.46875 -0.015625 17.164062 0.53125 14.53125 0.53125 Z M 14.53125 -5.8125 C 16.195312 -5.8125 17.515625 -6.429688 18.484375 -7.671875 C 19.453125 -8.921875 19.9375 -10.570312 19.9375 -12.625 C 19.9375 -14.5625 19.453125 -16.140625 18.484375 -17.359375 C 17.515625 -18.578125 16.195312 -19.1875 14.53125 -19.1875 C 12.882812 -19.1875 11.550781 -18.582031 10.53125 -17.375 C 9.519531 -16.175781 9.015625 -14.59375 9.015625 -12.625 C 9.015625 -10.539062 9.519531 -8.882812 10.53125 -7.65625 C 11.550781 -6.425781 12.882812 -5.8125 14.53125 -5.8125 Z M 14.53125 -5.8125 "/></g></g></g><g clip-path="url(#f1eef17e35)"><g fill="#000000" fill-opacity="1"><g transform="translate(178.797033, 43.441629)"><g><path d="M 8.671875 0 L 0.359375 0 L 8.578125 -12.625 L 0.3125 -24.953125 L 8.671875 -24.953125 L 13.15625 -17.515625 L 17.78125 -24.953125 L 26.328125 -24.953125 L 17.828125 -12.625 L 26.28125 0 L 17.828125 0 L 13.203125 -7.609375 Z M 8.671875 0 "/></g></g></g></g></g></g></g></g></g></g></svg>